# xmcd
#
# Track frame offsets:
#	150
#	17025
#	35017
#	48435
#	66960
#	84874
#	103650
#	119850
#	138895
#	152408
#	169283
#	187275
#	200693
#	219218
#	237132
#	255908
#	272108
#	291153
#
# Disc length: 4062 seconds
#
# Revision: 2
# Processed by: cddbd v1.5.2PL0 Copyright (c) Steve Scherf et al.
# Submitted via: audiograbber 1.83.01
#
DISCID=070fdc12
DTITLE=Various Artist - PHN0209-
DYEAR=2002
DGENRE=Karaoke
TTITLE0=Dixie Chicks - Long Time Gone
TTITLE1=Tim McGraw - Unbroken
TTITLE2=Garth Brooks - Thicker Than Blood
TTITLE3=Alan Jackson - Work In Progress
TTITLE4=Rebecca Lynn Howard - Forgive
TTITLE5=Trisha Yearwood - I Don't Paint Myself Into Corners
TTITLE6=Chris Cagle - Country By The Grace Of God
TTITLE7=Montgomery Gentry - My town
TTITLE8=The Wilkinsons - Ouside Providence
TTITLE9=Dixie Chicks  - Long Time Gone (vocal)
TTITLE10=Tim McGraw  - Unbroken (vocal)
TTITLE11=Garth Brooks  - Thicker Than Blood (vocal)
TTITLE12=Alan Jackson - Work In Progress (vocal)
TTITLE13=Rebecca Lynn Howard  - Forgive (vocal)
TTITLE14=Trisha Yearwood  - I Don't Paint Myself Into Corners (vocal)
TTITLE15=Chris Cagle  - Country By The Grace Of God (vocal)
TTITLE16=Mongomery Gentry  - My Town (vocal)
TTITLE17=The Wilkinsons - Outside Providence (vocal)
EXTD=fixed vocal tracks
EXTT0=
EXTT1=
EXTT2=
EXTT3=
EXTT4=
EXTT5=
EXTT6=
EXTT7=
EXTT8=
EXTT9=
EXTT10=
EXTT11=
EXTT12=
EXTT13=
EXTT14=
EXTT15=
EXTT16=
EXTT17=
PLAYORDER=
